#Comment line ignore any data following # character 
#Hierarchical Translation and Rotation (.htr) file 
[Header]	
#Header keywords are followed by a single value 
FileType HTR		#Single word string
DataType HTRS		#Translation followed by rotation and scale data
FileVersion 1		#integer
NumSegments 84		#integer
NumFrames 2		#integer
DataFrameRate 30		#integer, data frame rate in this file
EulerRotationOrder ZYX
CalibrationUnits mm
RotationUnits Degrees
GlobalAxisofGravity Y
BoneLengthAxis Y
ScaleFactor 1.00
[SegmentNames&Hierarchy]
#CHILD	PARENT
MASTER GLOBAL
root MASTER
chest root
L_mid_tent01 root
R_mid_tent01 root
spine01 root
Bip01_Neck chest
L_humerus chest
R_humerus chest
weapon_bone chest
Bip01_Head Bip01_Neck
eye_left_bone Bip01_Head
eye_right_bone Bip01_Head
L_forearm L_humerus
L_front_hand L_forearm
L_weapon_bone L_forearm
L_front_hand01_01 L_front_hand
L_front_hand02_01 L_front_hand
L_front_hand03_01 L_front_hand
L_front_hand01_02 L_front_hand01_01
L_front_hand02_02 L_front_hand02_01
L_front_hand03_02 L_front_hand03_01
R_forearm R_humerus
R_front_hand R_forearm
R_weapon_bone R_forearm
R_front_hand01_01 R_front_hand
R_front_hand02_01 R_front_hand
R_front_hand03_01 R_front_hand
R_front_hand01_02 R_front_hand01_01
R_front_hand02_02 R_front_hand02_01
R_front_hand03_02 R_front_hand03_01
null_rope01_connect L_mid_tent01
Rope1_Seg01 null_rope01_connect
Rope1_Seg02 Rope1_Seg01
Rope1_Seg03 Rope1_Seg02
Rope1_Seg04 Rope1_Seg03
Rope1_Seg05 Rope1_Seg04
Rope1_Seg06 Rope1_Seg05
Rope1_Seg07 Rope1_Seg06
Rope1_Seg09 Rope1_Seg07
L_mid_hand01 Rope1_Seg09
L_mid_hand02 Rope1_Seg09
L_mid_hand03 Rope1_Seg09
null_rope02_connect R_mid_tent01
Rope2_Seg01 null_rope02_connect
Rope2_Seg02 Rope2_Seg01
Rope2_Seg03 Rope2_Seg02
Rope2_Seg04 Rope2_Seg03
Rope2_Seg05 Rope2_Seg04
Rope2_Seg06 Rope2_Seg05
Rope2_Seg07 Rope2_Seg06
Rope2_Seg09 Rope2_Seg07
R_mid_hand01 Rope2_Seg09
R_mid_hand02 Rope2_Seg09
R_mid_hand03 Rope2_Seg09
spine02 spine01
spine03 spine02
pelvis spine03
null_rope03_connect pelvis
null_rope04_connect pelvis
Rope3_Seg01 null_rope03_connect
Rope3_Seg02 Rope3_Seg01
Rope3_Seg03 Rope3_Seg02
Rope3_Seg04 Rope3_Seg03
Rope3_Seg05 Rope3_Seg04
Rope3_Seg06 Rope3_Seg05
Rope3_Seg07 Rope3_Seg06
Rope3_Seg08 Rope3_Seg07
Rope3_Seg09 Rope3_Seg08
R_rear_hand01 Rope3_Seg09
R_rear_hand02 Rope3_Seg09
R_rear_hand03 Rope3_Seg09
Rope4_Seg01 null_rope04_connect
Rope4_Seg02 Rope4_Seg01
Rope4_Seg03 Rope4_Seg02
Rope4_Seg04 Rope4_Seg03
Rope4_Seg05 Rope4_Seg04
Rope4_Seg06 Rope4_Seg05
Rope4_Seg07 Rope4_Seg06
Rope4_Seg08 Rope4_Seg07
Rope4_Seg09 Rope4_Seg08
L_rear_hand01 Rope4_Seg09
L_rear_hand02 Rope4_Seg09
L_rear_hand03 Rope4_Seg09
[BasePosition]
#SegmentName Tx, Ty, Tz, Rx, Ry, Rz, BoneLength
MASTER 0.000000 0.000000 0.000000 -90.000000 0.000000 0.000000 10.000000 
root 0.000000 0.000000 0.000000 0.000000 0.000000 0.000000 10.000000 
chest 0.000000 0.000000 0.000000 0.000000 0.000000 0.000000 10.000000 
L_mid_tent01 0.000000 0.000000 0.000000 0.000000 0.000000 0.000000 10.000000 
R_mid_tent01 0.000000 0.000000 0.000000 0.000000 0.000000 0.000000 10.000000 
spine01 0.000000 0.000000 0.000000 0.000000 0.000000 0.000000 10.000000 
Bip01_Neck 0.000000 0.000000 0.000000 0.000000 0.000000 0.000000 10.000000 
L_humerus 0.000000 0.000000 0.000000 0.000000 0.000000 0.000000 10.000000 
R_humerus 0.000000 0.000000 0.000000 0.000000 0.000000 0.000000 10.000000 
weapon_bone 0.000000 0.000000 0.000000 0.000000 0.000000 0.000000 10.000000 
Bip01_Head 0.000000 0.000000 0.000000 0.000000 0.000000 0.000000 10.000000 
eye_left_bone 0.000000 0.000000 0.000000 0.000000 0.000000 0.000000 10.000000 
eye_right_bone 0.000000 0.000000 0.000000 0.000000 0.000000 0.000000 10.000000 
L_forearm 0.000000 0.000000 0.000000 0.000000 0.000000 0.000000 10.000000 
L_front_hand 0.000000 0.000000 0.000000 0.000000 0.000000 0.000000 10.000000 
L_weapon_bone 0.000000 0.000000 0.000000 0.000000 0.000000 0.000000 10.000000 
L_front_hand01_01 0.000000 0.000000 0.000000 0.000000 0.000000 0.000000 10.000000 
L_front_hand02_01 0.000000 0.000000 0.000000 0.000000 0.000000 0.000000 10.000000 
L_front_hand03_01 0.000000 0.000000 0.000000 0.000000 0.000000 0.000000 10.000000 
L_front_hand01_02 0.000000 0.000000 0.000000 0.000000 0.000000 0.000000 10.000000 
L_front_hand02_02 0.000000 0.000000 0.000000 0.000000 0.000000 0.000000 10.000000 
L_front_hand03_02 0.000000 0.000000 0.000000 0.000000 0.000000 0.000000 10.000000 
R_forearm 0.000000 0.000000 0.000000 0.000000 0.000000 0.000000 10.000000 
R_front_hand 0.000000 0.000000 0.000000 0.000000 0.000000 0.000000 10.000000 
R_weapon_bone 0.000000 0.000000 0.000000 0.000000 0.000000 0.000000 10.000000 
R_front_hand01_01 0.000000 0.000000 0.000000 0.000000 0.000000 0.000000 10.000000 
R_front_hand02_01 0.000000 0.000000 0.000000 0.000000 0.000000 0.000000 10.000000 
R_front_hand03_01 0.000000 0.000000 0.000000 0.000000 0.000000 0.000000 10.000000 
R_front_hand01_02 0.000000 0.000000 0.000000 0.000000 0.000000 0.000000 10.000000 
R_front_hand02_02 0.000000 0.000000 0.000000 0.000000 0.000000 0.000000 10.000000 
R_front_hand03_02 0.000000 0.000000 0.000000 0.000000 0.000000 0.000000 10.000000 
null_rope01_connect 0.000000 0.000000 0.000000 0.000000 0.000000 0.000000 10.000000 
Rope1_Seg01 0.000000 0.000000 0.000000 0.000000 0.000000 0.000000 10.000000 
Rope1_Seg02 0.000000 0.000000 0.000000 0.000000 0.000000 0.000000 10.000000 
Rope1_Seg03 0.000000 0.000000 0.000000 0.000000 0.000000 0.000000 10.000000 
Rope1_Seg04 0.000000 0.000000 0.000000 0.000000 0.000000 0.000000 10.000000 
Rope1_Seg05 0.000000 0.000000 0.000000 0.000000 0.000000 0.000000 10.000000 
Rope1_Seg06 0.000000 0.000000 0.000000 0.000000 0.000000 0.000000 10.000000 
Rope1_Seg07 0.000000 0.000000 0.000000 0.000000 0.000000 0.000000 10.000000 
Rope1_Seg09 0.000000 0.000000 0.000000 0.000000 0.000000 0.000000 10.000000 
L_mid_hand01 0.000000 0.000000 0.000000 0.000000 0.000000 0.000000 10.000000 
L_mid_hand02 0.000000 0.000000 0.000000 0.000000 0.000000 0.000000 10.000000 
L_mid_hand03 0.000000 0.000000 0.000000 0.000000 0.000000 0.000000 10.000000 
null_rope02_connect 0.000000 0.000000 0.000000 0.000000 0.000000 0.000000 10.000000 
Rope2_Seg01 0.000000 0.000000 0.000000 0.000000 0.000000 0.000000 10.000000 
Rope2_Seg02 0.000000 0.000000 0.000000 0.000000 0.000000 0.000000 10.000000 
Rope2_Seg03 0.000000 0.000000 0.000000 0.000000 0.000000 0.000000 10.000000 
Rope2_Seg04 0.000000 0.000000 0.000000 0.000000 0.000000 0.000000 10.000000 
Rope2_Seg05 0.000000 0.000000 0.000000 0.000000 0.000000 0.000000 10.000000 
Rope2_Seg06 0.000000 0.000000 0.000000 0.000000 0.000000 0.000000 10.000000 
Rope2_Seg07 0.000000 0.000000 0.000000 0.000000 0.000000 0.000000 10.000000 
Rope2_Seg09 0.000000 0.000000 0.000000 0.000000 0.000000 0.000000 10.000000 
R_mid_hand01 0.000000 0.000000 0.000000 0.000000 0.000000 0.000000 10.000000 
R_mid_hand02 0.000000 0.000000 0.000000 0.000000 0.000000 0.000000 10.000000 
R_mid_hand03 0.000000 0.000000 0.000000 0.000000 0.000000 0.000000 10.000000 
spine02 0.000000 0.000000 0.000000 0.000000 0.000000 0.000000 10.000000 
spine03 0.000000 0.000000 0.000000 0.000000 0.000000 0.000000 10.000000 
pelvis 0.000000 0.000000 0.000000 0.000000 0.000000 0.000000 10.000000 
null_rope03_connect 0.000000 0.000000 0.000000 0.000000 0.000000 0.000000 10.000000 
null_rope04_connect 0.000000 0.000000 0.000000 0.000000 0.000000 0.000000 10.000000 
Rope3_Seg01 0.000000 0.000000 0.000000 0.000000 0.000000 0.000000 10.000000 
Rope3_Seg02 0.000000 0.000000 0.000000 0.000000 0.000000 0.000000 10.000000 
Rope3_Seg03 0.000000 0.000000 0.000000 0.000000 0.000000 0.000000 10.000000 
Rope3_Seg04 0.000000 0.000000 0.000000 0.000000 0.000000 0.000000 10.000000 
Rope3_Seg05 0.000000 0.000000 0.000000 0.000000 0.000000 0.000000 10.000000 
Rope3_Seg06 0.000000 0.000000 0.000000 0.000000 0.000000 0.000000 10.000000 
Rope3_Seg07 0.000000 0.000000 0.000000 0.000000 0.000000 0.000000 10.000000 
Rope3_Seg08 0.000000 0.000000 0.000000 0.000000 0.000000 0.000000 10.000000 
Rope3_Seg09 0.000000 0.000000 0.000000 0.000000 0.000000 0.000000 10.000000 
R_rear_hand01 0.000000 0.000000 0.000000 0.000000 0.000000 0.000000 10.000000 
R_rear_hand02 0.000000 0.000000 0.000000 0.000000 0.000000 0.000000 10.000000 
R_rear_hand03 0.000000 0.000000 0.000000 0.000000 0.000000 0.000000 10.000000 
Rope4_Seg01 0.000000 0.000000 0.000000 0.000000 0.000000 0.000000 10.000000 
Rope4_Seg02 0.000000 0.000000 0.000000 0.000000 0.000000 0.000000 10.000000 
Rope4_Seg03 0.000000 0.000000 0.000000 0.000000 0.000000 0.000000 10.000000 
Rope4_Seg04 0.000000 0.000000 0.000000 0.000000 0.000000 0.000000 10.000000 
Rope4_Seg05 0.000000 0.000000 0.000000 0.000000 0.000000 0.000000 10.000000 
Rope4_Seg06 0.000000 0.000000 0.000000 0.000000 0.000000 0.000000 10.000000 
Rope4_Seg07 0.000000 0.000000 0.000000 0.000000 0.000000 0.000000 10.000000 
Rope4_Seg08 0.000000 0.000000 0.000000 0.000000 0.000000 0.000000 10.000000 
Rope4_Seg09 0.000000 0.000000 0.000000 0.000000 0.000000 0.000000 10.000000 
L_rear_hand01 0.000000 0.000000 0.000000 0.000000 0.000000 0.000000 10.000000 
L_rear_hand02 0.000000 0.000000 0.000000 0.000000 0.000000 0.000000 10.000000 
L_rear_hand03 0.000000 0.000000 0.000000 0.000000 0.000000 0.000000 10.000000 
#Beginning of Data. Separated by tabs
#Fr	Tx	Ty	Tz	Rx	Ry	Rz	SF
[MASTER]
16 0.000000 0.000000 0.000000 0.001660 0.001660 0.001660 0.000000
17 0.000000 0.000000 0.000000 0.001660 0.001660 0.001660 0.000000
[root]
16 -25.236538 -62.822117 1368.425049 -90.295105 -7.576702 -89.830383 1370.098755
17 -37.520821 -62.822117 1367.076904 -89.825050 -7.777266 -89.831459 1369.033813
[chest]
16 -84.512650 -34.090519 0.000000 -0.307809 -0.743092 156.385437 91.129311
17 -84.512650 -34.090519 0.000000 -0.307809 -0.743092 156.385437 91.129311
[L_mid_tent01]
16 23.228750 24.509907 -223.761200 -10.881434 7.580579 -7.361919 226.294907
17 23.228750 24.509907 -223.761200 -9.047956 6.811608 -4.927379 226.294907
[R_mid_tent01]
16 23.228794 24.509907 226.238495 -161.383469 -10.971015 -21.082726 228.744751
17 23.228794 24.509907 226.238495 -161.957199 -14.054324 -20.380884 228.744751
[spine01]
16 -0.361383 -0.195265 0.000000 0.001815 0.001488 11.320962 0.410763
17 -0.361383 -0.195265 0.000000 0.001815 0.001488 11.320962 0.410763
[Bip01_Neck]
16 165.484543 71.581718 0.000119 175.896118 1.177290 24.871183 180.302734
17 165.484543 71.581718 0.000119 175.896118 1.177290 24.871185 180.302734
[L_humerus]
16 -13.983130 -135.272980 -120.471481 149.628754 9.923236 -156.213867 181.680161
17 -13.983130 -135.272980 -120.471481 149.628754 9.923232 -156.213852 181.680161
[R_humerus]
16 -13.983309 -135.273102 125.287651 -156.699188 -11.743878 -154.898071 184.909012
17 -13.983309 -135.273102 125.287651 -156.699188 -11.743876 -154.898056 184.909012
[weapon_bone]
16 235.964890 -300.705902 0.000000 0.000000 -89.951546 -128.212341 382.234833
17 235.964890 -300.705902 0.000000 0.000000 -89.951546 -128.212341 382.234833
[Bip01_Head]
16 179.663712 77.989006 -1.800933 2.369836 -0.250304 -41.391548 195.868790
17 179.663712 77.989006 -1.800933 2.724937 -0.084064 -41.407116 195.868790
[eye_left_bone]
16 -24.626970 125.451866 -64.772606 0.000000 -90.000000 -99.840431 143.318359
17 -24.626970 125.451866 -64.772606 0.000000 -90.000000 -99.840431 143.318359
[eye_right_bone]
16 -24.626970 125.451866 64.327362 0.000000 -89.965736 80.156380 143.117676
17 -24.626970 125.451866 64.327362 0.000000 -89.972023 80.156380 143.117676
[L_forearm]
16 322.776093 0.000000 -0.000119 0.000842 -0.002191 -132.067245 322.776093
17 322.776093 0.000000 -0.000119 0.000842 -0.002191 -132.067245 322.776093
[L_front_hand]
16 241.149185 -0.042021 -3.300071 63.951050 -1.505369 -39.928638 241.171753
17 241.149185 -0.042021 -3.300071 63.012928 -1.502086 -39.932400 241.171753
[L_weapon_bone]
16 156.183838 0.000000 0.000000 0.000014 0.000007 0.000001 156.183838
17 156.183838 0.000000 0.000000 0.000014 0.000007 0.000001 156.183838
[L_front_hand01_01]
16 86.095154 20.947098 -0.655860 0.084270 -0.593879 29.792650 88.609184
17 86.095154 20.947098 -0.655860 0.104979 -0.589973 27.877556 88.609184
[L_front_hand02_01]
16 86.935165 -11.437475 24.513514 120.450699 -26.770567 -15.181130 91.046425
17 86.935165 -11.437475 24.513514 119.980583 -25.123232 -14.110581 91.046425
[L_front_hand03_01]
16 86.637497 -14.123976 -20.424902 -121.670097 25.360432 -17.471165 90.126129
17 86.637497 -14.123976 -20.424902 -121.212784 23.730659 -16.373650 90.126129
[L_front_hand01_02]
16 71.020905 -0.000179 0.000030 0.000334 -0.002323 -106.379684 71.020905
17 71.020905 -0.000179 0.000030 0.000334 -0.002323 -106.379684 71.020905
[L_front_hand02_02]
16 71.020927 -0.000119 0.000060 0.000334 -0.002323 -106.379684 71.020927
17 71.020927 -0.000119 0.000060 0.000334 -0.002323 -106.379684 71.020927
[L_front_hand03_02]
16 71.020905 -0.000060 0.000060 0.000334 -0.002323 -106.379684 71.020905
17 71.020905 -0.000060 0.000060 0.000334 -0.002323 -106.379684 71.020905
[R_forearm]
16 322.776428 -0.000060 0.000030 0.244684 0.084396 -126.001297 322.776428
17 322.776428 -0.000060 0.000030 0.244684 0.084396 -126.001312 322.776428
[R_front_hand]
16 238.847015 -0.006795 2.210259 40.670467 0.237800 -48.449051 238.857239
17 238.847015 -0.006795 2.210259 40.930305 0.239817 -48.450741 238.857239
[R_weapon_bone]
16 155.664093 0.002503 -0.000030 0.003487 0.001180 -90.988930 155.664078
17 155.664093 0.002503 -0.000030 0.003487 0.001180 -90.988930 155.664078
[R_front_hand01_01]
16 87.624611 14.231146 22.918642 -128.062790 -42.784245 28.463591 91.683487
17 87.624611 14.231146 22.918642 -124.528831 -37.027721 22.962879 91.683487
[R_front_hand02_01]
16 89.356956 14.367283 -19.491137 129.251846 41.392345 31.290245 92.579636
17 89.356956 14.367283 -19.491137 125.778519 35.732635 25.733725 92.579636
[R_front_hand03_01]
16 87.286232 -22.307278 -0.143439 -0.045407 -0.454347 -49.305988 90.091743
17 87.286232 -22.307278 -0.143439 -0.097390 -0.443918 -42.171013 90.091743
[R_front_hand01_02]
16 71.020905 0.000060 0.000119 0.002338 -0.000204 99.955132 71.020905
17 71.020905 0.000060 0.000119 0.002323 -0.000334 106.381714 71.020905
[R_front_hand02_02]
16 71.020844 -0.000030 -0.000119 0.002338 -0.000204 99.955132 71.020836
17 71.020844 -0.000030 -0.000119 0.002323 -0.000334 106.381714 71.020836
[R_front_hand03_02]
16 71.020905 0.000000 0.000030 0.002338 -0.000204 99.955132 71.020905
17 71.020905 0.000000 0.000030 0.002323 -0.000334 106.381714 71.020905
[null_rope01_connect]
16 328.732483 0.000000 -0.000238 -131.908340 -76.667671 -123.840706 328.732483
17 328.732483 0.000000 -0.000238 -130.581360 -78.954079 -127.253952 328.732483
[Rope1_Seg01]
16 0.000000 0.000000 0.000000 78.927040 -34.714539 -150.863174 0.000000
17 0.000000 0.000000 0.000000 71.564217 -39.492588 -143.779495 0.000000
[Rope1_Seg02]
16 139.999863 -0.000179 0.000000 -2.652346 7.443842 -0.795551 139.999863
17 139.999863 -0.000179 0.000000 -2.933580 9.434438 -2.722707 139.999863
[Rope1_Seg03]
16 139.999924 0.000060 -0.000060 -4.084476 8.709978 -0.562644 139.999924
17 139.999924 0.000060 -0.000060 -4.820161 11.004954 -3.496787 139.999924
[Rope1_Seg04]
16 139.999924 -0.000060 -0.000119 -3.304486 8.345290 -4.362866 139.999924
17 139.999924 -0.000060 -0.000119 -10.345886 15.290685 -5.830851 139.999924
[Rope1_Seg05]
16 139.999832 0.000119 -0.000060 -11.984800 11.773683 4.077244 139.999832
17 139.999832 0.000119 -0.000060 -4.573381 -1.117757 7.104311 139.999832
[Rope1_Seg06]
16 139.999954 0.000119 -0.000060 -10.605930 5.338737 11.725970 139.999954
17 139.999954 0.000119 -0.000060 0.451095 -5.355956 4.903505 139.999954
[Rope1_Seg07]
16 139.999985 0.000060 0.000000 -3.765088 1.377888 5.540732 139.999985
17 139.999985 0.000060 0.000000 -0.327939 -0.923606 1.616709 139.999985
[Rope1_Seg09]
16 121.602913 0.000119 -0.000089 -89.793175 -1.359789 0.847147 121.602913
17 121.602913 0.000119 -0.000089 -89.793175 -1.359789 0.847147 121.602913
[L_mid_hand01]
16 103.859421 1.038730 8.195221 106.855484 -31.239275 -9.461397 104.187431
17 103.859421 1.038730 8.195221 106.855484 -31.239275 -9.461397 104.187431
[L_mid_hand02]
16 105.572853 -4.139662 -10.864139 -142.331345 25.752670 -28.774628 106.211075
17 105.572853 -4.139662 -10.864139 -142.331345 25.752670 -28.774628 106.211075
[L_mid_hand03]
16 104.641464 17.579376 -3.913581 -16.122810 9.734291 34.223598 106.179977
17 104.641464 17.579376 -3.913581 -16.122810 9.734291 34.223598 106.179977
[null_rope02_connect]
16 328.732849 0.000179 -0.000119 -121.070694 68.533081 -57.863266 328.732849
17 328.732849 0.000179 -0.000119 -115.302338 67.022957 -51.235603 328.732849
[Rope2_Seg01]
16 0.000143 0.000086 -0.000114 82.707329 -54.877270 -106.769096 0.000202
17 0.000142 0.000086 -0.000112 72.129120 -51.524548 -93.699715 0.000201
[Rope2_Seg02]
16 139.999741 -0.000060 -0.000119 0.024608 1.700980 -9.465930 139.999756
17 139.999741 -0.000060 -0.000119 1.595105 -0.402865 -10.882113 139.999756
[Rope2_Seg03]
16 140.000107 0.000030 0.000000 1.140979 2.191000 -12.452327 140.000107
17 140.000107 0.000030 0.000000 2.943037 -1.081302 -13.031400 140.000107
[Rope2_Seg04]
16 139.999802 0.000000 -0.000060 5.538815 -4.024536 -20.730310 139.999802
17 139.999802 0.000000 -0.000060 6.405637 -7.622023 -18.325199 139.999802
[Rope2_Seg05]
16 139.999985 -0.000060 0.000119 3.251113 2.661886 -12.643093 139.999985
17 139.999985 -0.000060 0.000119 1.715789 2.395852 -7.889441 139.999985
[Rope2_Seg06]
16 139.999893 -0.000030 -0.000119 -7.090789 21.804445 2.252760 139.999893
17 139.999893 -0.000030 -0.000119 -4.625576 17.009583 2.447936 139.999893
[Rope2_Seg07]
16 139.999893 0.000060 -0.000060 -12.971450 16.558737 5.237289 139.999893
17 139.999893 0.000060 -0.000060 -5.884967 11.919124 2.479167 139.999893
[Rope2_Seg09]
16 121.338966 0.000089 -0.000060 33.793236 -1.359788 -0.847141 121.338966
17 121.338966 0.000089 -0.000060 33.793236 -1.359788 -0.847141 121.338966
[R_mid_hand01]
16 104.680779 11.144459 -10.335981 -41.523792 25.424656 28.595957 105.778534
17 104.680779 11.144459 -10.335981 -41.523792 25.424656 28.595957 105.778534
[R_mid_hand02]
16 104.070427 2.443552 8.231699 72.847389 -32.746803 10.013901 104.424065
17 104.070427 2.443552 8.231699 72.847389 -32.746803 10.013901 104.424065
[R_mid_hand03]
16 106.028137 -11.221827 -5.996406 -167.901306 10.259192 -37.009720 106.788818
17 106.028137 -11.221827 -5.996406 -167.901306 10.259192 -37.009720 106.788818
[spine02]
16 129.756927 0.001550 0.000119 0.001147 -1.797837 -7.854275 129.756927
17 129.756927 0.001550 0.000119 0.001147 -1.797837 -7.854274 129.756927
[spine03]
16 79.115631 0.000000 -0.000119 1.459971 -2.848092 23.765963 79.115631
17 79.115631 0.000000 -0.000119 1.459971 -2.848092 23.765963 79.115631
[pelvis]
16 169.435242 0.051022 0.000000 -0.000005 0.000003 -4.322055 169.435257
17 169.435242 0.051022 0.000000 -0.000005 0.000003 -4.322055 169.435257
[null_rope03_connect]
16 -1.257226 -2.466202 137.391083 65.276253 -85.355820 9.303140 137.418976
17 -1.257226 -2.466202 137.391083 60.789619 -85.091682 14.009543 137.418976
[null_rope04_connect]
16 -1.259640 -2.480268 -137.844437 65.276253 -85.355820 9.303140 137.872513
17 -1.259640 -2.480268 -137.844437 60.789619 -85.091682 14.009543 137.872513
[Rope3_Seg01]
16 0.000000 0.000000 0.000000 -123.698555 -12.524777 -104.489929 0.000000
17 0.000000 0.000000 0.000000 -128.519714 -8.846155 -90.892059 0.000000
[Rope3_Seg02]
16 139.999924 -0.000119 0.000060 -0.764912 -3.277662 -0.703792 139.999924
17 139.999924 -0.000119 0.000060 0.034814 0.401972 0.990935 139.999924
[Rope3_Seg03]
16 139.999924 -0.000119 0.000119 -0.774059 -3.927339 -0.902164 139.999924
17 139.999924 -0.000119 0.000119 0.016050 0.456525 1.129367 139.999924
[Rope3_Seg04]
16 139.999924 0.000119 0.000000 -0.765965 -4.756678 -1.303072 139.999924
17 139.999924 0.000119 0.000000 0.088208 1.504052 1.694453 139.999924
[Rope3_Seg05]
16 139.999924 -0.000238 0.000060 -0.402297 -5.998812 -2.121817 139.999924
17 139.999924 -0.000238 0.000060 0.520090 2.919291 2.478881 139.999924
[Rope3_Seg06]
16 139.999893 -0.000119 -0.000060 0.039985 -6.812470 -0.976752 139.999893
17 139.999893 -0.000119 -0.000060 -0.581532 -4.075317 -0.160755 139.999893
[Rope3_Seg07]
16 139.999771 0.000060 -0.000119 0.380171 -6.002044 0.526508 139.999771
17 139.999771 0.000060 -0.000119 -0.671683 -10.019986 -2.685213 139.999771
[Rope3_Seg08]
16 139.999985 -0.000060 0.000000 0.648273 -4.683533 0.044447 139.999985
17 139.999985 -0.000060 0.000000 0.201595 -5.943747 -1.370731 139.999985
[Rope3_Seg09]
16 90.185997 -0.000179 -0.000060 89.793228 -1.359877 -0.847183 90.185997
17 90.185997 -0.000179 -0.000060 89.793228 -1.359877 -0.847183 90.185997
[R_rear_hand01]
16 103.366196 -6.073594 -10.757982 -161.551193 16.666374 -30.088671 104.101845
17 103.366196 -6.073594 -10.757982 -161.551193 16.666374 -30.088671 104.101845
[R_rear_hand02]
16 100.509819 12.039542 -7.992327 -34.280552 19.289745 28.875523 101.543350
17 100.509819 12.039542 -7.992327 -34.280552 19.289745 28.875523 101.543350
[R_rear_hand03]
16 101.539970 5.215704 5.435467 83.366440 -30.933914 7.284830 101.819031
17 101.539970 5.215704 5.435467 83.366440 -30.933914 7.284830 101.819031
[Rope4_Seg01]
16 0.000000 0.000000 0.000000 53.505821 -17.237293 -128.249252 0.000000
17 0.000000 0.000000 0.000000 46.352985 -12.066657 -99.183716 0.000000
[Rope4_Seg02]
16 139.999985 0.000060 0.000119 1.189841 14.764544 8.076973 139.999985
17 139.999985 0.000060 0.000119 0.014168 0.689475 -2.031075 139.999985
[Rope4_Seg03]
16 139.999924 0.000000 -0.000238 0.614125 9.668534 5.709231 139.999924
17 139.999924 0.000000 -0.000238 0.058454 -0.972238 -0.864370 139.999924
[Rope4_Seg04]
16 139.999985 0.000000 0.000119 0.247291 6.028211 5.038175 139.999985
17 139.999985 0.000000 0.000119 0.069650 -0.932814 -0.453923 139.999985
[Rope4_Seg05]
16 139.999802 -0.000060 -0.000119 0.230687 3.759026 1.097884 139.999802
17 139.999802 -0.000060 -0.000119 0.036468 1.683361 -0.324255 139.999802
[Rope4_Seg06]
16 139.999924 0.000000 0.000060 0.716479 3.781284 -1.582996 139.999924
17 139.999924 0.000000 0.000060 0.109466 4.622590 -0.394845 139.999924
[Rope4_Seg07]
16 139.999802 0.000000 0.000000 1.569426 5.304675 -4.338463 139.999802
17 139.999802 0.000000 0.000000 0.486856 7.670974 -0.600175 139.999802
[Rope4_Seg08]
16 139.999924 0.000000 0.000119 -0.121276 4.808764 -2.691552 139.999924
17 139.999924 0.000000 0.000119 -0.878275 5.528834 -0.585424 139.999924
[Rope4_Seg09]
16 90.185791 0.000060 0.000060 -135.617828 2.228885 0.850567 90.185791
17 90.185791 0.000060 0.000060 -135.617828 2.228885 0.850567 90.185791
[L_rear_hand01]
16 101.696655 -8.392275 -7.654577 -34.454281 -18.946800 151.655121 102.329041
17 101.696655 -8.392275 -7.654577 -34.454281 -18.946800 151.655121 102.329041
[L_rear_hand02]
16 102.726799 -1.568258 5.773216 83.407906 30.330435 172.796509 102.900848
17 102.726799 -1.568258 5.773216 83.407906 30.330435 172.796509 102.900848
[L_rear_hand03]
16 104.552910 9.721220 -10.420293 -161.379868 -16.473232 -150.512238 105.519653
17 104.552910 9.721220 -10.420293 -161.379868 -16.473232 -150.512238 105.519653
